<mxfile host="65bd71144e">
    <diagram id="ku70nQ0pHDrw9aP20MHm" name="Page-1">
        <mxGraphModel dx="1392" dy="784" grid="1" gridSize="10" guides="1" tooltips="1" connect="1" arrows="1" fold="1" page="1" pageScale="1" pageWidth="1100" pageHeight="850" math="0" shadow="0">
            <root>
                <mxCell id="0"/>
                <mxCell id="1" parent="0"/>
                <mxCell id="4" style="edgeStyle=none;html=1;fillColor=#b0e3e6;strokeColor=#0e8088;fontColor=#000000;fontStyle=1;fontFamily=vazir;fontSize=16;" edge="1" parent="1" source="2" target="3">
                    <mxGeometry relative="1" as="geometry"/>
                </mxCell>
                <mxCell id="2" value="شروع" style="ellipse;whiteSpace=wrap;html=1;fillColor=#b0e3e6;strokeColor=#0e8088;fontColor=#000000;fontStyle=1;fontFamily=vazir;fontSize=16;" vertex="1" parent="1">
                    <mxGeometry x="420" y="100" width="120" height="80" as="geometry"/>
                </mxCell>
                <mxCell id="6" value="" style="edgeStyle=none;html=1;fillColor=#b0e3e6;strokeColor=#0e8088;fontColor=#000000;fontStyle=1;fontFamily=vazir;fontSize=16;" edge="1" parent="1" source="3" target="5">
                    <mxGeometry relative="1" as="geometry"/>
                </mxCell>
                <mxCell id="3" value="n را بخوان" style="shape=parallelogram;perimeter=parallelogramPerimeter;whiteSpace=wrap;html=1;fixedSize=1;fillColor=#b0e3e6;strokeColor=#0e8088;fontColor=#000000;fontStyle=1;fontFamily=vazir;fontSize=16;" vertex="1" parent="1">
                    <mxGeometry x="420" y="230" width="120" height="60" as="geometry"/>
                </mxCell>
                <mxCell id="8" value="" style="edgeStyle=none;html=1;fillColor=#b0e3e6;strokeColor=#0e8088;fontColor=#000000;fontStyle=1;fontFamily=vazir;fontSize=16;" edge="1" parent="1" source="5" target="7">
                    <mxGeometry relative="1" as="geometry"/>
                </mxCell>
                <mxCell id="10" style="edgeStyle=none;html=1;fillColor=#b0e3e6;strokeColor=#0e8088;fontColor=#000000;fontStyle=1;fontFamily=vazir;fontSize=16;" edge="1" parent="1" source="5" target="9">
                    <mxGeometry relative="1" as="geometry"/>
                </mxCell>
                <mxCell id="5" value="if n % 15 = 0" style="rhombus;whiteSpace=wrap;html=1;fillColor=#b0e3e6;strokeColor=#0e8088;fontColor=#000000;fontStyle=1;fontFamily=vazir;fontSize=16;" vertex="1" parent="1">
                    <mxGeometry x="440" y="360" width="80" height="80" as="geometry"/>
                </mxCell>
                <mxCell id="23" style="edgeStyle=none;html=1;entryX=0.75;entryY=0;entryDx=0;entryDy=0;entryPerimeter=0;fillColor=#b0e3e6;strokeColor=#0e8088;fontColor=#000000;fontStyle=1;fontFamily=vazir;fontSize=16;" edge="1" parent="1" source="7" target="19">
                    <mxGeometry relative="1" as="geometry"/>
                </mxCell>
                <mxCell id="7" value="چاپ کن فیزباز" style="shape=parallelogram;perimeter=parallelogramPerimeter;whiteSpace=wrap;html=1;fixedSize=1;fillColor=#b0e3e6;strokeColor=#0e8088;fontColor=#000000;fontStyle=1;fontFamily=vazir;fontSize=16;" vertex="1" parent="1">
                    <mxGeometry x="580" y="370" width="120" height="60" as="geometry"/>
                </mxCell>
                <mxCell id="12" value="" style="edgeStyle=none;html=1;fillColor=#b0e3e6;strokeColor=#0e8088;fontColor=#000000;fontStyle=1;fontFamily=vazir;fontSize=16;" edge="1" parent="1" source="9" target="11">
                    <mxGeometry relative="1" as="geometry"/>
                </mxCell>
                <mxCell id="14" value="" style="edgeStyle=none;html=1;fillColor=#b0e3e6;strokeColor=#0e8088;fontColor=#000000;fontStyle=1;fontFamily=vazir;fontSize=16;" edge="1" parent="1" source="9" target="13">
                    <mxGeometry relative="1" as="geometry"/>
                </mxCell>
                <mxCell id="9" value="if n % 5 = 0" style="rhombus;whiteSpace=wrap;html=1;fillColor=#b0e3e6;strokeColor=#0e8088;fontColor=#000000;fontStyle=1;fontFamily=vazir;fontSize=16;" vertex="1" parent="1">
                    <mxGeometry x="440" y="490" width="80" height="80" as="geometry"/>
                </mxCell>
                <mxCell id="22" style="edgeStyle=none;html=1;fillColor=#b0e3e6;strokeColor=#0e8088;fontColor=#000000;fontStyle=1;fontFamily=vazir;fontSize=16;" edge="1" parent="1" source="11" target="19">
                    <mxGeometry relative="1" as="geometry"/>
                </mxCell>
                <mxCell id="11" value="چاپ کن باز" style="shape=parallelogram;perimeter=parallelogramPerimeter;whiteSpace=wrap;html=1;fixedSize=1;fillColor=#b0e3e6;strokeColor=#0e8088;fontColor=#000000;fontStyle=1;fontFamily=vazir;fontSize=16;" vertex="1" parent="1">
                    <mxGeometry x="580" y="500" width="120" height="60" as="geometry"/>
                </mxCell>
                <mxCell id="16" value="" style="edgeStyle=none;html=1;fillColor=#b0e3e6;strokeColor=#0e8088;fontColor=#000000;fontStyle=1;fontFamily=vazir;fontSize=16;" edge="1" parent="1" source="13" target="15">
                    <mxGeometry relative="1" as="geometry"/>
                </mxCell>
                <mxCell id="18" value="" style="edgeStyle=none;html=1;fillColor=#b0e3e6;strokeColor=#0e8088;fontColor=#000000;fontStyle=1;fontFamily=vazir;fontSize=16;" edge="1" parent="1" source="13" target="17">
                    <mxGeometry relative="1" as="geometry"/>
                </mxCell>
                <mxCell id="13" value="if n % 3 = 0" style="rhombus;whiteSpace=wrap;html=1;fillColor=#b0e3e6;strokeColor=#0e8088;fontColor=#000000;fontStyle=1;fontFamily=vazir;fontSize=16;" vertex="1" parent="1">
                    <mxGeometry x="440" y="650" width="80" height="80" as="geometry"/>
                </mxCell>
                <mxCell id="21" style="edgeStyle=none;html=1;fillColor=#b0e3e6;strokeColor=#0e8088;fontColor=#000000;fontStyle=1;fontFamily=vazir;fontSize=16;" edge="1" parent="1" source="15" target="19">
                    <mxGeometry relative="1" as="geometry"/>
                </mxCell>
                <mxCell id="15" value="چاپ کن فیز" style="shape=parallelogram;perimeter=parallelogramPerimeter;whiteSpace=wrap;html=1;fixedSize=1;fillColor=#b0e3e6;strokeColor=#0e8088;fontColor=#000000;fontStyle=1;fontFamily=vazir;fontSize=16;" vertex="1" parent="1">
                    <mxGeometry x="580" y="660" width="120" height="60" as="geometry"/>
                </mxCell>
                <mxCell id="20" style="edgeStyle=none;html=1;fillColor=#b0e3e6;strokeColor=#0e8088;fontColor=#000000;fontStyle=1;fontFamily=vazir;fontSize=16;" edge="1" parent="1" source="17" target="19">
                    <mxGeometry relative="1" as="geometry"/>
                </mxCell>
                <mxCell id="17" value="n را چاپ کن" style="shape=parallelogram;perimeter=parallelogramPerimeter;whiteSpace=wrap;html=1;fixedSize=1;fillColor=#b0e3e6;strokeColor=#0e8088;fontColor=#000000;fontStyle=1;fontFamily=vazir;fontSize=16;" vertex="1" parent="1">
                    <mxGeometry x="420" y="820" width="120" height="60" as="geometry"/>
                </mxCell>
                <mxCell id="19" value="پایان" style="ellipse;whiteSpace=wrap;html=1;fillColor=#b0e3e6;strokeColor=#0e8088;fontColor=#000000;fontStyle=1;fontFamily=vazir;fontSize=16;" vertex="1" parent="1">
                    <mxGeometry x="820" y="810" width="120" height="80" as="geometry"/>
                </mxCell>
            </root>
        </mxGraphModel>
    </diagram>
</mxfile>
